# xmcd CD database file
#
# Track frame offsets:
#	150
#	29501
#	57397
#	84228
#	106139
#	135402
#	157810
#	199207
#	227329
#	255081
#	281436
#	300542
#
# Disc length: 4558 seconds
#
# Revision: 0
# Processed by: cddbd v1.5.2PL0 Copyright (c) Steve Scherf et al.
# Submitted via: CDex 1.70beta2
#
DISCID=8811cc0c
DTITLE=Nybakat! - Happy Land
DYEAR=2010
DGENRE=Jazz
TTITLE0=Sevivon
TTITLE1=Flamencophone
TTITLE2=August campfire
TTITLE3=Vlad's sweets and tears
TTITLE4=Bobe mayses
TTITLE5=It's good, it's a disease
TTITLE6=The rite
TTITLE7=33 delar
TTITLE8=Den sista isbjörnens dans
TTITLE9=Haarava
TTITLE10=Music box
TTITLE11=Happy land
EXTD=YEAR: 2010
EXTT0=
EXTT1=
EXTT2=
EXTT3=
EXTT4=
EXTT5=
EXTT6=
EXTT7=
EXTT8=
EXTT9=
EXTT10=
EXTT11=
PLAYORDER=
